<svg xmlns="http://www.w3.org/2000/svg" xmlns:xlink="http://www.w3.org/1999/xlink" width="406" zoomAndPan="magnify" viewBox="0 0 304.5 275.999989" height="368" preserveAspectRatio="xMidYMid meet" version="1.0"><defs><g/><clipPath id="3c1a25ca21"><path d="M 0 0.226562 L 304 0.226562 L 304 275.773438 L 0 275.773438 Z M 0 0.226562 " clip-rule="nonzero"/></clipPath></defs><g clip-path="url(#3c1a25ca21)"><path fill="#ffffff" d="M 0 0.226562 L 304 0.226562 L 304 275.773438 L 0 275.773438 Z M 0 0.226562 " fill-opacity="1" fill-rule="nonzero"/><path fill="#111111" d="M 0 0.226562 L 304 0.226562 L 304 275.773438 L 0 275.773438 Z M 0 0.226562 " fill-opacity="1" fill-rule="nonzero"/></g><g fill="#ffffff" fill-opacity="1"><g transform="translate(87.954924, 225.842643)"><g><path d="M -9.203125 17.625 C -9.203125 11.382812 -7.117188 5.976562 -2.953125 1.40625 C 1.203125 -3.164062 6.554688 -5.453125 13.109375 -5.453125 C 20.078125 -5.453125 25.484375 -3.375 29.328125 0.78125 C 33.171875 4.9375 35.09375 9.976562 35.09375 15.90625 C 35.09375 19.34375 34.023438 23.035156 31.890625 26.984375 C 29.765625 30.941406 26.882812 33.851562 23.25 35.71875 L 23.71875 36.34375 C 25.0625 38.320312 28.128906 39.3125 32.921875 39.3125 C 34.578125 39.3125 36.003906 39.207031 37.203125 39 C 38.398438 38.789062 39.929688 38.320312 41.796875 37.59375 C 43.671875 36.863281 45.257812 35.613281 46.5625 33.84375 C 47.863281 32.082031 49.140625 29.769531 50.390625 26.90625 C 51.640625 24.050781 52.597656 20.226562 53.265625 15.4375 C 53.941406 10.65625 54.28125 5.09375 54.28125 -1.25 L 54.28125 -214.03125 L 24.03125 -215.59375 L 24.03125 -222.609375 L 118.25 -222.609375 L 118.25 -215.59375 L 94.21875 -214.03125 L 94.21875 -34.46875 C 94.21875 -20.539062 92.628906 -8.351562 89.453125 2.09375 C 86.285156 12.550781 82.414062 20.585938 77.84375 26.203125 C 73.269531 31.816406 67.890625 36.363281 61.703125 39.84375 C 55.515625 43.332031 50 45.546875 45.15625 46.484375 C 40.320312 47.421875 35.410156 47.890625 30.421875 47.890625 C 19.296875 47.890625 9.910156 45.238281 2.265625 39.9375 C -5.378906 34.632812 -9.203125 27.195312 -9.203125 17.625 Z M -9.203125 17.625 "/></g></g></g></svg>