<svg xmlns="http://www.w3.org/2000/svg" xmlns:xlink="http://www.w3.org/1999/xlink" width="406" zoomAndPan="magnify" viewBox="0 0 304.5 275.999989" height="368" preserveAspectRatio="xMidYMid meet" version="1.0"><defs><clipPath id="fbb8f784a9"><path d="M 0 0.226562 L 304 0.226562 L 304 275.773438 L 0 275.773438 Z M 0 0.226562 " clip-rule="nonzero"/></clipPath><clipPath id="82f258d369"><path d="M 33.6875 2 L 270.296875 2 L 270.296875 77 L 33.6875 77 Z M 33.6875 2 " clip-rule="nonzero"/></clipPath><clipPath id="c40c58cd08"><path d="M 154 169 L 238 169 L 238 275.773438 L 154 275.773438 Z M 154 169 " clip-rule="nonzero"/></clipPath><clipPath id="1eaeccf42f"><path d="M 63 92 L 238 92 L 238 275.773438 L 63 275.773438 Z M 63 92 " clip-rule="nonzero"/></clipPath></defs><g clip-path="url(#fbb8f784a9)"><path fill="#ffffff" d="M 0 0.226562 L 304 0.226562 L 304 275.773438 L 0 275.773438 Z M 0 0.226562 " fill-opacity="1" fill-rule="nonzero"/><path fill="#ffffff" d="M 0 0.226562 L 304 0.226562 L 304 275.773438 L 0 275.773438 Z M 0 0.226562 " fill-opacity="1" fill-rule="nonzero"/></g><g clip-path="url(#82f258d369)"><path fill="#010101" d="M 83.050781 76.21875 C 174.980469 75.808594 220.933594 76.839844 220.933594 76.839844 C 237.765625 25.234375 270.191406 3.578125 270.191406 3.578125 C 251.957031 0.820312 237.8125 10.351562 234.644531 32.355469 C 223.09375 13.382812 202.355469 28.199219 202.171875 36.671875 C 211.332031 30.195312 219.050781 36.992188 220.613281 45.421875 C 226.03125 74.40625 173.925781 66.34375 157.367188 52.3125 C 161.0625 50.109375 163.519531 46.089844 163.519531 41.496094 C 163.519531 34.515625 157.871094 28.863281 150.890625 28.863281 C 143.929688 28.863281 138.28125 34.511719 138.28125 41.496094 C 138.28125 46.179688 140.832031 50.269531 144.597656 52.425781 C 129.28125 65.472656 80.960938 73.808594 83.121094 46.617188 C 83.855469 37.40625 92.007812 29.117188 101.8125 36.050781 C 101.605469 27.601562 80.890625 12.765625 69.339844 31.757812 C 66.171875 9.734375 52.027344 0.203125 33.792969 2.957031 C 33.792969 2.957031 66.21875 24.617188 83.050781 76.21875 Z M 83.050781 76.21875 " fill-opacity="1" fill-rule="evenodd"/></g><g clip-path="url(#c40c58cd08)"><path fill="#010101" d="M 172.984375 169.347656 L 154.75 187.925781 L 154.75 275.726562 L 237.398438 219.34375 L 237.398438 175.320312 L 219.1875 175.320312 L 219.1875 209.722656 L 172.984375 241.230469 Z M 172.984375 169.347656 " fill-opacity="1" fill-rule="evenodd"/></g><path fill="#010101" d="M 146.457031 146.65625 L 146.457031 92.386719 L 63.808594 92.386719 L 63.808594 110.601562 L 128.222656 110.601562 L 128.222656 165.238281 Z M 146.457031 146.65625 " fill-opacity="1" fill-rule="evenodd"/><g clip-path="url(#1eaeccf42f)"><path fill="#010101" d="M 112.769531 230.691406 L 82.019531 209.722656 L 82.019531 175.320312 L 63.808594 175.320312 L 63.808594 219.34375 L 99.816406 243.917969 L 146.457031 275.726562 L 146.457031 184.527344 L 154.75 176.054688 L 172.984375 157.496094 L 172.984375 110.601562 L 237.398438 110.601562 L 237.398438 92.386719 L 154.75 92.386719 L 154.75 150.078125 L 146.457031 158.53125 L 144.875 160.136719 L 128.222656 177.085938 L 128.222656 241.230469 Z M 112.769531 230.691406 " fill-opacity="1" fill-rule="evenodd"/></g></svg>