<svg xmlns="http://www.w3.org/2000/svg" xmlns:xlink="http://www.w3.org/1999/xlink" width="406" zoomAndPan="magnify" viewBox="0 0 304.5 275.999989" height="368" preserveAspectRatio="xMidYMid meet" version="1.0"><defs><clipPath id="ea0bda340f"><path d="M 33.6875 2 L 270.296875 2 L 270.296875 77 L 33.6875 77 Z M 33.6875 2 " clip-rule="nonzero"/></clipPath><clipPath id="6b38d367c7"><path d="M 154 169 L 238 169 L 238 275.773438 L 154 275.773438 Z M 154 169 " clip-rule="nonzero"/></clipPath><clipPath id="69e2333245"><path d="M 63 92 L 238 92 L 238 275.773438 L 63 275.773438 Z M 63 92 " clip-rule="nonzero"/></clipPath></defs><g clip-path="url(#ea0bda340f)"><path fill="#ffffff" d="M 83.054688 76.21875 C 174.988281 75.808594 220.941406 76.839844 220.941406 76.839844 C 237.777344 25.234375 270.203125 3.578125 270.203125 3.578125 C 251.96875 0.820312 237.824219 10.351562 234.652344 32.355469 C 223.101562 13.382812 202.363281 28.199219 202.179688 36.671875 C 211.34375 30.195312 219.058594 36.992188 220.621094 45.421875 C 226.039062 74.40625 173.929688 66.34375 157.371094 52.3125 C 161.070312 50.109375 163.527344 46.089844 163.527344 41.496094 C 163.527344 34.515625 157.878906 28.863281 150.894531 28.863281 C 143.9375 28.863281 138.285156 34.511719 138.285156 41.496094 C 138.285156 46.179688 140.835938 50.269531 144.601562 52.425781 C 129.285156 65.472656 80.964844 73.808594 83.121094 46.617188 C 83.855469 37.40625 92.011719 29.117188 101.816406 36.050781 C 101.609375 27.601562 80.894531 12.765625 69.34375 31.757812 C 66.175781 9.734375 52.027344 0.203125 33.792969 2.957031 C 33.792969 2.957031 66.21875 24.617188 83.054688 76.21875 Z M 83.054688 76.21875 " fill-opacity="1" fill-rule="evenodd"/></g><g clip-path="url(#6b38d367c7)"><path fill="#ffffff" d="M 172.988281 169.347656 L 154.753906 187.925781 L 154.753906 275.726562 L 237.410156 219.34375 L 237.410156 175.320312 L 219.195312 175.320312 L 219.195312 209.722656 L 172.988281 241.230469 Z M 172.988281 169.347656 " fill-opacity="1" fill-rule="evenodd"/></g><path fill="#ffffff" d="M 146.464844 146.65625 L 146.464844 92.386719 L 63.808594 92.386719 L 63.808594 110.601562 L 128.226562 110.601562 L 128.226562 165.238281 Z M 146.464844 146.65625 " fill-opacity="1" fill-rule="evenodd"/><g clip-path="url(#69e2333245)"><path fill="#ffffff" d="M 112.773438 230.691406 L 82.019531 209.722656 L 82.019531 175.320312 L 63.808594 175.320312 L 63.808594 219.34375 L 99.820312 243.917969 L 146.464844 275.726562 L 146.464844 184.527344 L 154.753906 176.054688 L 172.988281 157.496094 L 172.988281 110.601562 L 237.410156 110.601562 L 237.410156 92.386719 L 154.753906 92.386719 L 154.753906 150.078125 L 146.464844 158.53125 L 144.878906 160.136719 L 128.226562 177.085938 L 128.226562 241.230469 Z M 112.773438 230.691406 " fill-opacity="1" fill-rule="evenodd"/></g></svg>