<svg xmlns="http://www.w3.org/2000/svg" xmlns:xlink="http://www.w3.org/1999/xlink" width="406" zoomAndPan="magnify" viewBox="0 0 304.5 275.999989" height="368" preserveAspectRatio="xMidYMid meet" version="1.0"><defs><clipPath id="edc63895d7"><path d="M 0 0.226562 L 304 0.226562 L 304 275.773438 L 0 275.773438 Z M 0 0.226562 " clip-rule="nonzero"/></clipPath></defs><g clip-path="url(#edc63895d7)"><path fill="#ffffff" d="M 0 0.226562 L 304 0.226562 L 304 275.773438 L 0 275.773438 Z M 0 0.226562 " fill-opacity="1" fill-rule="nonzero"/><path fill="#111111" d="M 0 0.226562 L 304 0.226562 L 304 275.773438 L 0 275.773438 Z M 0 0.226562 " fill-opacity="1" fill-rule="nonzero"/><path stroke-linecap="butt" transform="matrix(0.926537, 0, 0, 0.926537, -115.175683, -34.799225)" fill="none" stroke-linejoin="miter" d="M 187.087605 235.316684 C 187.332131 240.299956 188.24278 245.160965 189.823767 249.899711 C 191.400539 254.642673 193.892175 258.803831 197.294459 262.387402 C 200.70096 265.97519 205.19518 268.829399 210.785551 270.954246 C 216.375922 273.083308 223.365994 274.145732 231.747334 274.145732 C 241.469352 274.145732 249.521847 272.838782 255.900604 270.229099 C 262.283577 267.6152 267.325872 264.120165 271.031706 259.743992 C 274.73754 255.372035 277.351439 250.388763 278.869187 244.798392 C 280.391151 239.208021 281.150025 233.436363 281.150025 227.479203 L 281.150025 140.529119 C 281.150025 133.964859 279.025178 129.255625 274.771268 126.401416 C 270.517358 123.542991 261.950515 122.117995 249.066523 122.117995 L 249.066523 54.485467 L 418.413449 54.485467 L 418.413449 122.117995 C 407.721759 122.117995 400.095076 123.542991 395.537617 126.401416 C 390.980158 129.255625 388.69932 134.694221 388.69932 142.717205 L 388.69932 227.11663 C 388.69932 237.56801 387.059309 248.866799 383.779287 261.021429 C 380.499266 273.17606 374.512594 284.352586 365.823488 294.563656 C 357.134382 304.77051 345.194766 313.307841 330.00464 320.17565 C 314.814514 327.039243 295.307239 330.475255 271.487031 330.475255 C 249.007499 330.475255 230.625887 327.37652 216.34641 321.17905 C 202.066933 314.977364 190.945214 307.321169 182.98547 298.210466 C 175.025726 289.095548 169.528107 279.491577 166.488395 269.406986 C 163.452899 259.318179 161.930936 250.57005 161.930936 243.158381 C 161.930936 232.462475 163.511923 222.984983 166.669682 214.72169 C 169.831656 206.45418 173.904279 199.590588 178.883335 194.12248 C 183.866607 188.650156 189.638265 184.552236 196.202524 181.816074 C 202.766783 179.079912 209.630376 177.713939 216.801734 177.713939 C 225.309554 177.713939 232.539936 178.961865 238.49288 181.453501 C 244.45004 183.945137 249.370072 187.254671 253.261409 191.386318 C 257.14853 195.517964 259.973227 200.197687 261.735501 205.421269 C 263.497775 210.649067 264.378912 215.994912 264.378912 221.46302 C 264.378912 227.42018 263.375512 232.888288 261.372928 237.87156 C 259.366128 242.854832 256.693206 247.138253 253.349944 250.721824 C 250.006683 254.305395 245.967788 257.163821 241.229042 259.288667 C 236.490296 261.41773 231.507024 262.480154 226.279226 262.480154 C 219.959493 262.480154 214.64316 261.691768 210.330226 260.110781 C 206.017293 258.529794 202.370482 256.434458 199.39401 253.820559 C 196.413322 251.20666 193.925902 248.2597 191.919102 244.979678 C 189.912303 241.699657 188.301804 238.478659 187.087605 235.316684 Z M 187.087605 235.316684 " stroke="#ffffff" stroke-width="7.46666" stroke-opacity="1" stroke-miterlimit="4"/></g></svg>